PathFileType	4	(X/Y/Z)	Walk3.trc
DataRate	CameraRate	NumFrames	NumMarkers	Units	OrigDataRate	OrigDataStartFrame	OrigNumFrames
200.000000	200.000000	8	61	mm	200.000000	398	737
Frame#	Times		LTH3		RCAR		LBHD		RTH2		LWRU		LUA1		LElbow		RTH3		LFA1		LCAR		C7		RPSI		LElbowM		RTB3		RBHD		RASI		RTB1		RTB2		RToe		LTH4		RFA1		RMT5		RWRU		LWRR		LTH2		RLFC		RElbow		RTB4		RMT1		RMMAL		T10		RBack		RLMAL		STRN		LASI		LPSI		CLAV		RCAL		RUA1		RElbowM		LLFC		LFHD		LACR1		LTB3		RFHD		LTB4		LCAL		RACR1		LTB2		LMMAL		RTH1		LTB1		LMT5		LLMAL		RTH4		LMFC		RWRR		RMFC		LTH1		LToe		LMT1
			X1	Y1	Z1	X2	Y2	Z2	X3	Y3	Z3	X4	Y4	Z4	X5	Y5	Z5	X6	Y6	Z6	X7	Y7	Z7	X8	Y8	Z8	X9	Y9	Z9	X10	Y10	Z10	X11	Y11	Z11	X12	Y12	Z12	X13	Y13	Z13	X14	Y14	Z14	X15	Y15	Z15	X16	Y16	Z16	X17	Y17	Z17	X18	Y18	Z18	X19	Y19	Z19	X20	Y20	Z20	X21	Y21	Z21	X22	Y22	Z22	X23	Y23	Z23	X24	Y24	Z24	X25	Y25	Z25	X26	Y26	Z26	X27	Y27	Z27	X28	Y28	Z28	X29	Y29	Z29	X30	Y30	Z30	X31	Y31	Z31	X32	Y32	Z32	X33	Y33	Z33	X34	Y34	Z34	X35	Y35	Z35	X36	Y36	Z36	X37	Y37	Z37	X38	Y38	Z38	X39	Y39	Z39	X40	Y40	Z40	X41	Y41	Z41	X42	Y42	Z42	X43	Y43	Z43	X44	Y44	Z44	X45	Y45	Z45	X46	Y46	Z46	X47	Y47	Z47	X48	Y48	Z48	X49	Y49	Z49	X50	Y50	Z50	X51	Y51	Z51	X52	Y52	Z52	X53	Y53	Z53	X54	Y54	Z54	X55	Y55	Z55	X56	Y56	Z56	X57	Y57	Z57	X58	Y58	Z58	X59	Y59	Z59	X60	Y60	Z60	X61	Y61	Z61

398	1.99	-542.28	600.6	-170.69	-320.69	923.5	242.2	-632.69	1624.6	-90.419	-622.69	675.26	149.13	-750.98	842.99	-262.86	-690.06	1276.1	-269	-749.13	1128.7	-278.41	-719.27	603.41	162.97	-758.52	977.17	-279.43	-691.12	788.44	-273.94	-666.62	1496.1	-13.806	-788.04	1012.2	43.848	-775.37	1130	-205.11	-824.15	182	60.324	-630.34	1627.7	51.579	-576.62	1051.6	141.59	-750.65	352.67	80.416	-815.77	267.81	132.03	-717.03	23.983	90.907	-568.66	688.03	-186.94	-477.24	1008.5	290.7	-826.65	20.482	137.11	-386.76	910.81	256.54	-677.66	843.46	-224.66	-506	711.76	-158.19	-764.65	489.77	152.11	-573.44	1133.4	300.95	-786.43	266.79	68.642	-769.28	31.284	63.549	-866.78	92.783	17.164	-783.52	1278.3	-5.7629	-738.45	1413.9	126.9	-908.57	76.986	94.367	-504.43	1225.4	-19.249	-579.28	1011.8	-140.43	-791.47	1003.8	-33.111	-540.28	1400.7	-18.727	-966.4	48.144	41.989	-577.24	1286.4	246.39	-616.27	1103.9	235.48	-514.8	508.46	-154.94	-452.81	1655.8	-49.321	-607.2	1443.7	-185.4	-382	213.94	-87.961	-453.05	1656.2	27.087	-402.96	308.1	-85.084	-429.23	19.528	-83.258	-583.62	1447.2	138.55	-430.76	303.52	-155.24	-364.93	104.73	-50.109	-663.33	784.2	185.93	-422.84	395.83	-84.825	-274.99	51.053	-156.25	-387.57	75.488	-129.79	-688.87	691.92	177.47	-506.34	514.22	-21.201	-359.71	951.83	196.14	-748.28	504.4	20.92	-593.29	778.18	-195.13	-194.33	92.992	-96.307	-237.83	76.714	-78.292
399	1.995	-536.08	600.28	-170.64	-315.19	923.67	241.33	-627.35	1623.7	-91.686	-617.77	674.58	149.23	-746.12	841.85	-263.51	-684.36	1274.8	-269.84	-743.47	1127.5	-279.14	-714.56	602.93	162.75	-753.23	976.04	-280.11	-686.44	787.06	-274.26	-661.27	1495.3	-14.959	-782.49	1011.4	42.911	-769.88	1128.9	-205.92	-822.67	182.16	60.288	-625.09	1627	50.314	-571.04	1051.5	140.68	-747.4	352.09	80.239	-813.37	267.91	131.92	-717.04	23.969	90.901	-562.65	687.59	-187.32	-471.97	1008.2	289.89	-826.58	20.539	137.05	-381.22	910.72	255.6	-672.97	842.11	-225.01	-500.04	711.55	-158.69	-760.33	489.42	151.91	-568.43	1132.9	300.23	-784.09	266.57	68.529	-769.19	31.271	63.607	-866.21	93.405	17.215	-778.1	1277.6	-6.7126	-733.22	1413.4	125.83	-908.05	78	94.493	-498.96	1224.7	-19.812	-573.41	1010.9	-140.72	-785.87	1002.9	-33.995	-534.9	1399.9	-19.601	-966.19	49.696	42.149	-572.13	1285.9	245.55	-611.18	1103.3	234.68	-508.67	507.85	-154.99	-447.5	1655	-50.52	-601.7	1442.6	-186.39	-377.51	212.8	-87.47	-447.79	1655.6	25.889	-397.96	307.03	-84.703	-426.61	19.644	-82.881	-578.34	1446.6	137.58	-425.72	302.55	-154.8	-361.19	103.52	-49.546	-658.35	783.62	185.63	-417.38	394.83	-84.557	-271.98	48.837	-155.6	-383.99	74.584	-129.28	-684.02	691.4	177.22	-500.39	513.81	-21.363	-354.27	951.94	195.29	-743.34	503.83	20.791	-587.49	777.65	-195.77	-190.51	89.615	-95.523	-234.42	74.108	-77.633
400	2	-529.65	600.11	-170.59	-309.83	923.74	240.49	-621.99	1622.9	-92.998	-612.73	673.92	149.32	-741.13	840.71	-264.2	-678.62	1273.6	-270.71	-737.74	1126.3	-279.9	-709.7	602.44	162.54	-747.83	974.9	-280.83	-681.61	785.7	-274.61	-655.92	1494.6	-16.147	-776.92	1010.6	41.984	-764.32	1127.7	-206.78	-821.13	182.38	60.258	-619.83	1626.4	49.004	-565.46	1051.4	139.77	-744.03	351.52	80.064	-810.87	268.04	131.83	-717.06	23.952	90.884	-556.45	687.29	-187.67	-466.81	1007.8	289.07	-826.49	20.612	136.99	-375.85	910.56	254.69	-668.15	840.77	-225.39	-493.89	711.5	-159.19	-755.85	489.06	151.73	-563.49	1132.4	299.46	-781.64	266.37	68.427	-769.09	31.261	63.664	-865.59	94.106	17.299	-772.67	1276.8	-7.6781	-728	1412.8	124.73	-907.48	79.103	94.64	-493.48	1224	-20.404	-567.54	1010.1	-141.04	-780.25	1002.2	-34.868	-529.51	1399.2	-20.505	-965.93	51.381	42.339	-567.05	1285.4	244.69	-606.16	1102.8	233.84	-502.4	507.32	-155.09	-442.18	1654.4	-51.754	-596.2	1441.6	-187.4	-373.25	211.61	-87.013	-442.52	1655	24.657	-393.07	305.93	-84.358	-424.51	19.854	-82.52	-573.05	1446.1	136.59	-420.79	301.59	-154.4	-357.81	102.26	-49.016	-653.3	783.07	185.3	-411.91	393.83	-84.326	-269.51	46.396	-155.06	-380.85	73.661	-128.79	-679.08	690.89	176.96	-494.23	513.45	-21.61	-348.95	951.97	194.47	-738.24	503.24	20.674	-581.53	777.25	-196.39	-187.09	85.793	-94.827	-231.45	71.191	-77.048
401	2.005	-523.04	600.09	-170.54	-304.63	923.71	239.7	-616.62	1622.1	-94.354	-607.58	673.3	149.39	-736.01	839.57	-264.93	-672.83	1272.4	-271.59	-731.93	1125.1	-280.7	-704.7	601.95	162.33	-742.32	973.77	-281.58	-676.65	784.35	-275	-650.54	1493.9	-17.368	-771.32	1009.8	41.077	-758.69	1126.6	-207.67	-819.5	182.66	60.233	-614.56	1625.8	47.649	-559.87	1051.3	138.85	-740.52	350.95	79.895	-808.24	268.21	131.75	-717.08	23.93	90.855	-550.1	687.14	-187.97	-461.78	1007.4	288.24	-826.38	20.706	136.92	-370.64	910.35	253.8	-663.2	839.44	-225.79	-487.57	711.61	-159.67	-751.19	488.69	151.56	-558.61	1131.9	298.64	-779.09	266.21	68.336	-768.98	31.252	63.72	-864.92	94.892	17.419	-767.23	1276.2	-8.6568	-722.76	1412.3	123.58	-906.86	80.304	94.809	-487.99	1223.3	-21.026	-561.66	1009.4	-141.39	-774.62	1001.4	-35.725	-524.1	1398.5	-21.437	-965.62	53.209	42.555	-562	1284.9	243.81	-601.21	1102.3	232.95	-496	506.9	-155.25	-436.85	1653.8	-53.022	-590.69	1440.5	-188.44	-369.2	210.4	-86.598	-437.24	1654.5	23.391	-388.27	304.82	-84.054	-422.85	20.155	-82.187	-567.76	1445.6	135.57	-415.94	300.66	-154.04	-354.75	100.97	-48.532	-648.17	782.53	184.96	-406.44	392.85	-84.136	-267.51	43.799	-154.65	-378.09	72.748	-128.35	-674.02	690.39	176.71	-487.89	513.14	-21.943	-343.76	951.91	193.67	-733	502.64	20.568	-575.43	776.99	-196.97	-184.01	81.618	-94.225	-228.84	68.045	-76.546
402	2.01	-516.28	600.21	-170.49	-299.57	923.57	238.95	-611.23	1621.4	-95.752	-602.32	672.72	149.44	-730.76	838.44	-265.7	-666.99	1271.2	-272.5	-726.05	1123.9	-281.52	-699.55	601.46	162.12	-736.72	972.64	-282.36	-671.54	783.02	-275.41	-645.15	1493.3	-18.619	-765.71	1009	40.196	-753.01	1125.5	-208.59	-817.8	183.01	60.214	-609.3	1625.2	46.252	-554.27	1051.2	137.95	-736.88	350.39	79.734	-805.49	268.43	131.7	-717.12	23.904	90.814	-543.62	687.12	-188.21	-456.87	1007	287.41	-826.25	20.827	136.85	-365.59	910.07	252.94	-658.14	838.15	-226.22	-481.1	711.85	-160.13	-746.36	488.33	151.4	-553.79	1131.4	297.77	-776.43	266.07	68.258	-768.87	31.241	63.774	-864.16	95.772	17.579	-761.77	1275.6	-9.6459	-717.52	1411.9	122.41	-906.18	81.613	94.999	-482.48	1222.7	-21.679	-555.78	1008.6	-141.77	-768.99	1000.7	-36.558	-518.69	1397.9	-22.399	-965.25	55.193	42.796	-556.99	1284.5	242.9	-596.34	1101.8	232.01	-489.47	506.59	-155.45	-431.5	1653.2	-54.326	-585.18	1439.5	-189.49	-365.31	209.2	-86.232	-431.96	1654	22.093	-383.55	303.74	-83.796	-421.54	20.534	-81.89	-562.45	1445.1	134.54	-411.14	299.78	-153.74	-351.94	99.682	-48.103	-642.95	782.02	184.61	-400.95	391.89	-83.989	-265.89	41.12	-154.38	-375.65	71.869	-127.94	-668.84	689.9	176.44	-481.38	512.91	-22.361	-338.69	951.78	192.91	-727.59	502.04	20.475	-569.2	776.85	-197.5	-181.23	77.195	-93.721	-226.55	64.765	-76.132
403	2.015	-509.39	600.44	-170.45	-294.68	923.34	238.25	-605.83	1620.8	-97.191	-596.95	672.18	149.46	-725.37	837.34	-266.51	-661.12	1270	-273.43	-720.1	1122.7	-282.37	-694.23	600.96	161.91	-731	971.53	-283.16	-666.28	781.73	-275.86	-639.75	1492.7	-19.899	-760.09	1008.3	39.349	-747.25	1124.4	-209.53	-815.99	183.43	60.201	-604.02	1624.7	44.814	-548.67	1051.1	137.04	-733.09	349.85	79.586	-802.61	268.68	131.66	-717.16	23.873	90.761	-537.02	687.23	-188.38	-452.08	1006.6	286.57	-826.09	20.98	136.76	-360.71	909.73	252.11	-652.94	836.88	-226.67	-474.5	712.21	-160.56	-741.33	487.95	151.25	-549.04	1131	296.85	-773.65	265.98	68.195	-768.76	31.225	63.823	-863.31	96.751	17.784	-756.31	1275	-10.642	-712.28	1411.5	121.21	-905.41	83.036	95.209	-476.96	1222.2	-22.362	-549.91	1008	-142.17	-763.34	1000.1	-37.361	-513.26	1397.3	-23.387	-964.81	57.346	43.057	-552	1284.1	241.96	-591.53	1101.4	231.02	-482.83	506.4	-155.72	-426.15	1652.7	-55.663	-579.66	1438.5	-190.57	-361.58	208.03	-85.917	-426.66	1653.6	20.762	-378.89	302.7	-83.587	-420.51	20.979	-81.634	-557.14	1444.7	133.49	-406.36	298.97	-153.52	-349.38	98.427	-47.732	-637.66	781.54	184.24	-395.46	391	-83.886	-264.6	38.437	-154.28	-373.47	71.043	-127.6	-663.54	689.43	176.18	-474.73	512.76	-22.863	-333.74	951.57	192.17	-722.02	501.44	20.396	-562.88	776.82	-197.95	-178.7	72.642	-93.314	-224.52	61.452	-75.808
404	2.02	-502.41	600.78	-170.42	-289.94	923	237.59	-600.41	1620.2	-98.67	-591.44	671.69	149.44	-719.85	836.26	-267.35	-655.2	1268.9	-274.38	-714.07	1121.6	-283.23	-688.75	600.47	161.71	-725.19	970.44	-284	-660.88	780.48	-276.34	-634.33	1492.2	-21.203	-754.46	1007.6	38.542	-741.43	1123.3	-210.5	-814.09	183.93	60.196	-598.74	1624.3	43.338	-543.07	1051	136.15	-729.14	349.32	79.455	-799.57	268.99	131.65	-717.23	23.837	90.694	-530.35	687.45	-188.48	-447.43	1006.2	285.71	-825.91	21.172	136.66	-355.99	909.34	251.31	-647.62	835.66	-227.15	-467.8	712.67	-160.97	-736.1	487.58	151.13	-544.36	1130.6	295.88	-770.73	265.93	68.15	-768.63	31.201	63.868	-862.33	97.837	18.043	-750.85	1274.5	-11.642	-707.03	1411.2	119.98	-904.57	84.582	95.44	-471.42	1221.7	-23.075	-544.04	1007.5	-142.61	-757.68	999.52	-38.129	-507.83	1396.8	-24.401	-964.27	59.679	43.334	-547.05	1283.7	241	-586.78	1101	229.98	-476.09	506.34	-156.04	-420.78	1652.2	-57.035	-574.14	1437.6	-191.68	-357.99	206.91	-85.655	-421.36	1653.2	19.399	-374.3	301.72	-83.429	-419.69	21.473	-81.421	-551.81	1444.4	132.43	-401.6	298.25	-153.37	-347.02	97.227	-47.419	-632.28	781.09	183.86	-389.96	390.17	-83.83	-263.57	35.82	-154.33	-371.52	70.284	-127.31	-658.11	688.97	175.9	-467.95	512.71	-23.446	-328.92	951.28	191.46	-716.29	500.83	20.334	-556.47	776.9	-198.33	-176.39	68.072	-92.996	-222.72	58.202	-75.572
405	2.025	-495.37	601.21	-170.39	-285.37	922.57	236.99	-594.98	1619.6	-100.19	-585.82	671.26	149.38	-714.18	835.21	-268.22	-649.24	1267.8	-275.34	-707.98	1120.5	-284.12	-683.1	599.99	161.51	-719.27	969.39	-284.86	-655.32	779.28	-276.85	-628.9	1491.7	-22.528	-748.82	1007	37.78	-735.54	1122.3	-211.5	-812.05	184.51	60.201	-593.44	1623.9	41.824	-537.47	1050.9	135.26	-725.02	348.82	79.35	-796.38	269.35	131.66	-717.31	23.797	90.613	-523.61	687.78	-188.52	-442.91	1005.8	284.85	-825.69	21.41	136.55	-351.45	908.88	250.53	-642.16	834.49	-227.66	-461.02	713.22	-161.35	-730.66	487.2	151.03	-539.74	1130.2	294.86	-767.67	265.94	68.128	-768.51	31.167	63.907	-861.22	99.036	18.363	-745.38	1274.1	-12.642	-701.76	1410.9	118.74	-903.62	86.257	95.689	-465.88	1221.3	-23.816	-538.19	1007	-143.09	-752.02	999.01	-38.858	-502.39	1396.3	-25.439	-963.63	62.205	43.622	-542.12	1283.4	240	-582.1	1100.7	228.88	-469.26	506.4	-156.41	-415.4	1651.9	-58.44	-568.61	1436.7	-192.79	-354.53	205.86	-85.442	-416.04	1653	18.004	-369.76	300.81	-83.319	-419.02	21.997	-81.251	-546.48	1444.1	131.35	-396.85	297.62	-153.31	-344.86	96.101	-47.158	-626.81	780.67	183.46	-384.45	389.41	-83.819	-262.76	33.336	-154.53	-369.77	69.602	-127.07	-652.55	688.54	175.63	-461.07	512.77	-24.103	-324.23	950.91	190.78	-710.37	500.23	20.293	-550	777.08	-198.62	-174.28	63.586	-92.756	-221.12	55.099	-75.417
